<svg width="24" height="24" viewBox="0 0 24 24" fill="none" xmlns="http://www.w3.org/2000/svg">
<g clip-path="url(#clip0)">
<rect width="24" height="24" fill="#D3B36F"/>
<g filter="url(#filter0_d)">
<path fill-rule="evenodd" clip-rule="evenodd" d="M16.1159 5.50134H7.8842C6.57046 5.50134 5.5014 6.57033 5.5014 7.88413V16.1157C5.5014 17.4297 6.57046 18.4988 7.8842 18.4988H16.1159C17.4298 18.4988 18.4989 17.4297 18.4989 16.1157V7.88413C18.4989 6.5704 17.4298 5.50134 16.1159 5.50134ZM11.9999 16.2787C9.64081 16.2787 7.72127 14.3591 7.72127 11.9998C7.72127 9.64075 9.64081 7.72121 11.9999 7.72121C14.3592 7.72121 16.2787 9.64075 16.2787 11.9998C16.2787 14.3591 14.3592 16.2787 11.9999 16.2787ZM16.4164 8.60598C15.8579 8.60598 15.4037 8.15183 15.4037 7.59363C15.4037 7.03536 15.8579 6.58121 16.4164 6.58121C16.9746 6.58121 17.4287 7.03536 17.4287 7.59363C17.4287 8.15189 16.9746 8.60598 16.4164 8.60598Z" fill="white"/>
<path fill-rule="evenodd" clip-rule="evenodd" d="M11.9999 9.52954C10.638 9.52954 9.52899 10.638 9.52899 11.9999C9.52899 13.3623 10.638 14.471 11.9999 14.471C13.3623 14.471 14.4705 13.3623 14.4705 11.9999C14.4705 10.638 13.3623 9.52954 11.9999 9.52954Z" fill="white"/>
<path fill-rule="evenodd" clip-rule="evenodd" d="M0 0V24H24V0H0ZM20.3066 16.1158C20.3066 18.427 18.427 20.3066 16.1159 20.3066H7.8842C5.57328 20.3066 3.69336 18.427 3.69336 16.1158V7.8842C3.69336 5.57328 5.57328 3.69336 7.8842 3.69336H16.1159C18.427 3.69336 20.3066 5.57328 20.3066 7.8842V16.1158Z" fill="white"/>
</g>
</g>
<defs>
<filter id="filter0_d" x="-4" y="0" width="32" height="32" filterUnits="userSpaceOnUse" color-interpolation-filters="sRGB">
<feFlood flood-opacity="0" result="BackgroundImageFix"/>
<feColorMatrix in="SourceAlpha" type="matrix" values="0 0 0 0 0 0 0 0 0 0 0 0 0 0 0 0 0 0 127 0"/>
<feOffset dy="4"/>
<feGaussianBlur stdDeviation="2"/>
<feColorMatrix type="matrix" values="0 0 0 0 0 0 0 0 0 0 0 0 0 0 0 0 0 0 0.25 0"/>
<feBlend mode="normal" in2="BackgroundImageFix" result="effect1_dropShadow"/>
<feBlend mode="normal" in="SourceGraphic" in2="effect1_dropShadow" result="shape"/>
</filter>
<clipPath id="clip0">
<rect width="24" height="24" fill="white"/>
</clipPath>
</defs>
</svg>
