<svg width="31" height="38" viewBox="0 0 31 38" fill="none" xmlns="http://www.w3.org/2000/svg">
<path d="M30.8015 33.3688C30.5237 33.1708 30.2458 32.9333 29.968 32.6958C29.5314 32.3 29.2535 31.9833 29.0154 31.7063C28.8169 31.4688 28.6184 31.2708 28.3803 31.0729C27.8643 30.6771 27.2292 30.4 26.475 30.2812C27.3086 29.4896 28.6978 27.7479 28.5391 25.4125C28.42 23.75 27.5864 22.5229 27.2292 22.0875C26.5544 21.2563 25.7606 20.7417 25.0461 20.425C25.0858 20.3854 25.1652 20.3458 25.2049 20.3062C25.5621 19.9896 25.5621 19.475 25.4033 19.0792C25.2446 18.6438 24.927 18.4458 24.6889 18.3271C24.6492 18.2875 24.6095 18.2875 24.5698 18.2479C24.8476 18.1292 25.1255 17.9312 25.3239 17.6146C25.443 17.4563 25.6812 17.1396 25.6018 16.6646C25.5224 15.9917 24.8079 15.675 24.7286 15.6354C24.6492 15.5958 24.5301 15.5562 24.4507 15.5562C24.8079 15.3979 25.0064 15.2792 25.1652 15.0021C25.3636 14.6854 25.4827 14.4083 25.4033 14.0917C25.3239 13.6562 25.0064 13.3 24.5301 13.1021C24.2125 12.9437 23.895 12.9438 23.6569 12.9438C24.0538 12.4688 24.4904 11.7958 24.411 11.2417C24.3713 10.7667 24.1332 10.4104 24.0141 10.2917C23.6172 9.81667 22.9821 9.57917 22.2279 9.61875C22.5058 9.22292 22.7439 8.70833 22.6645 8.11458C22.5851 7.67917 22.4264 7.32292 22.1088 7.04583C21.7119 6.72917 21.1959 6.61042 20.6402 6.68958C20.7196 6.53125 20.799 6.33333 20.8387 6.175C21.1165 5.38333 21.1165 4.67083 20.8387 4.07708C20.799 3.99792 20.7593 3.91875 20.7196 3.83958C20.7196 3.76042 20.6402 3.5625 20.4814 3.28542C20.402 3.0875 20.3227 2.92917 20.283 2.81042C20.2036 2.6125 20.0051 2.53333 19.8067 2.57292C19.4891 2.65208 19.1319 2.77083 18.854 2.92917C18.4968 3.12708 18.219 3.325 18.0205 3.5625V3.28542C18.0205 3.00833 17.9411 2.73125 17.822 2.49375C17.6236 2.1375 17.3854 1.82083 17.1472 1.50417C16.7106 0.95 16.1946 0.514583 15.8374 0.2375L15.5595 0L15.5198 0L15.4802 0.0395833L15.2023 0.277083C14.8848 0.554167 14.3688 0.989583 13.8924 1.54375C13.6543 1.86042 13.4161 2.17708 13.2177 2.53333C13.0986 2.77083 13.0192 3.04792 13.0192 3.325V3.5625C12.781 3.325 12.5032 3.12708 12.1857 2.92917C11.9078 2.77083 11.5506 2.65208 11.233 2.57292C11.0346 2.53333 10.8361 2.65208 10.7567 2.81042C10.717 2.92917 10.6376 3.0875 10.5583 3.28542C10.4392 3.5625 10.3201 3.76042 10.2804 3.87917C10.2407 3.95833 10.201 4.0375 10.1613 4.11667C9.88348 4.71042 9.88348 5.42292 10.1613 6.21458C10.201 6.37292 10.2804 6.57083 10.3598 6.72917C9.8041 6.65 9.2484 6.76875 8.89117 7.08542C8.57362 7.32292 8.41485 7.67917 8.33547 8.15417C8.25608 8.74792 8.49424 9.2625 8.77209 9.65833C8.05762 9.61875 7.38284 9.85625 6.98592 10.3313C6.86684 10.45 6.62868 10.8063 6.58899 11.2812C6.5493 11.8354 6.98592 12.5083 7.34315 12.9833C7.10499 12.9833 6.78745 12.9833 6.46991 13.1417C5.95391 13.3792 5.63636 13.7354 5.59667 14.1313C5.55698 14.4479 5.63636 14.725 5.83483 15.0417C5.9936 15.2792 6.23175 15.3979 6.5493 15.5958C6.46991 15.6354 6.35083 15.6354 6.27145 15.675C6.19206 15.7146 5.47759 16.0312 5.39821 16.7042C5.31882 17.1396 5.59667 17.4958 5.67606 17.6542C5.87452 17.9312 6.15237 18.1292 6.43022 18.2875C6.39053 18.3271 6.35083 18.3271 6.31114 18.3667C6.07298 18.4854 5.75544 18.7229 5.59667 19.1187C5.4379 19.5146 5.47759 20.0292 5.79513 20.3458C5.83483 20.3854 5.87452 20.425 5.95391 20.4646C5.27913 20.7812 4.44558 21.2958 3.77081 22.1271C3.41357 22.5625 2.54033 23.7896 2.46095 25.4521C2.30218 27.8271 3.69142 29.5292 4.52497 30.3208C3.77081 30.4396 3.13572 30.7167 2.61972 31.1125C2.38156 31.2708 2.1831 31.5083 1.98464 31.7458C1.74648 32.0229 1.50832 32.3396 1.03201 32.7354C0.754161 32.9729 0.476312 33.2104 0.198464 33.4083C0.0793854 33.4875 0 33.6458 0 33.8042V37.2083C0 37.6437 0.357234 38 0.793854 38H15.2023H15.758H30.1665C30.6031 38 30.9603 37.6437 30.9603 37.2083V33.8042C31 33.6063 30.9206 33.4875 30.8015 33.3688ZM26.7529 22.4438C27.0704 22.8396 27.8643 23.9479 27.9437 25.4521C28.1421 28.2229 25.8399 30.0833 25.6018 30.2812L25.3636 30.4792C22.1088 30.9938 20.3624 29.9646 19.6479 29.3312C18.9334 28.6583 18.4968 27.7479 18.4968 26.8375C18.4968 26.1646 18.735 25.65 18.8143 25.4521C19.3303 24.3833 20.5211 23.4729 21.9898 23.4333C22.1088 23.4333 23.6172 23.4333 24.5301 24.4625C24.6889 24.6604 24.927 24.9771 25.0064 25.3729C25.0461 25.4521 25.0858 25.6896 25.0858 25.9271C25.0858 27.1146 24.0935 28.1042 22.8233 28.1042C22.6248 28.1042 22.4661 28.0646 22.3073 28.025C22.7439 27.8667 23.0615 27.4313 23.0615 26.9167C23.0615 26.2833 22.5058 25.7292 21.831 25.7292C21.1562 25.7292 20.6005 26.2438 20.6005 26.9167C20.6005 27.3125 20.8387 27.7083 21.1562 27.9062C21.5928 28.2625 22.1882 28.4604 22.7836 28.4604C24.2522 28.4604 25.443 27.3125 25.443 25.9271C25.443 25.7292 25.4033 25.5312 25.3636 25.3729V25.3333C25.3636 25.2938 25.3239 25.2146 25.3239 25.175C25.3239 25.175 25.3239 25.175 25.3239 25.1354C25.2843 25.0563 25.2446 24.9375 25.2049 24.8188C25.2049 24.8188 25.2049 24.7792 25.1652 24.7792C25.1255 24.7 25.0858 24.6208 25.0064 24.5417L24.9667 24.5021C24.9667 24.4625 24.927 24.4625 24.8873 24.4229C24.8079 24.3438 24.7682 24.2646 24.6889 24.225L24.6492 24.1854C24.6492 24.1854 24.6492 24.1854 24.6095 24.1458C24.5698 24.1063 24.4904 24.0667 24.4507 23.9875C24.411 23.9479 24.3713 23.9083 24.3316 23.8687C23.8553 23.5125 23.0218 23.0375 21.9104 23.0375C20.0448 23.0771 18.0205 24.6208 18.0205 26.7979C18.0205 27.6292 18.2983 28.3813 18.7746 29.0146C18.854 29.0938 20.0448 30.9938 23.5378 30.9938C24.1729 30.9938 24.8476 30.9146 25.6415 30.7958H25.6812C26.6338 30.8354 27.3483 31.0729 27.904 31.5083C28.1024 31.6667 28.2612 31.8646 28.4597 32.1021C28.6978 32.3792 28.9757 32.6958 29.452 33.1312C29.5711 33.25 29.7298 33.3688 29.8886 33.4875H20.799C19.886 33.1312 18.1793 32.2604 17.0679 30.4396C16.5915 29.6875 15.1229 26.9563 16.4328 24.1458C16.5916 23.7896 17.1076 22.8792 18.0205 22.0479C18.0205 22.0479 18.0205 22.0479 18.0602 22.0083C18.6159 21.4937 19.37 21.0583 20.3227 20.7417C21.8707 20.2667 23.2202 20.425 24.1332 20.6625H24.1729C24.8873 20.9396 25.9193 21.4146 26.7529 22.4438ZM11.5109 33.4875C12.4635 32.9333 13.5749 32.1021 14.4085 30.7563C14.6069 30.4396 14.9245 29.8458 15.2023 29.0938V33.4875H11.5109ZM17.5442 21.7313C16.5916 22.6021 16.0755 23.5125 15.9168 23.9083C15.8771 23.9875 15.8771 24.0667 15.8374 24.1458V18.5646C17.1869 19.7917 17.5045 21.2958 17.5442 21.7313ZM15.242 18.525V24.3042C15.2023 24.1854 15.1626 24.0667 15.0832 23.9479C14.8848 23.5521 14.4085 22.6417 13.4558 21.7708C13.4955 21.2958 13.8131 19.7521 15.242 18.525ZM15.8374 29.2125C16.1152 29.925 16.3931 30.4792 16.5915 30.7563C17.4251 32.1021 18.5762 32.9729 19.4891 33.4875H15.8374V29.2125ZM24.8476 19.2771C24.927 19.475 24.927 19.7917 24.8079 19.9104C24.6889 20.0292 24.4507 20.0292 24.0935 20.0292C24.0141 20.0292 23.9744 20.0292 23.8553 20.0292H23.6569C23.0615 19.9104 22.347 19.8708 21.5531 19.95H21.315L21.3944 19.9896C20.9974 20.0292 20.5608 20.1479 20.1242 20.2667C19.2907 20.5438 18.6159 20.9 18.0602 21.3354C18.0602 21.2958 18.0602 21.2563 18.0205 21.2167C18.3777 20.9792 19.0922 20.5042 20.0448 19.8312C20.9577 19.1979 21.3944 18.9208 22.0691 18.7229C22.4264 18.6437 22.7836 18.5646 23.1805 18.5646C23.2202 18.5646 23.2996 18.5646 23.379 18.5646C23.6569 18.6042 24.0141 18.6042 24.3713 18.8417C24.5698 18.8813 24.7682 19.0396 24.8476 19.2771ZM24.4904 16.1896C24.4904 16.1896 24.9667 16.3875 25.0461 16.7833C25.0858 17.0208 24.927 17.2188 24.8476 17.2979C24.3713 17.9708 23.3393 17.9708 23.2202 17.9312C22.7836 17.9312 22.3867 18.0104 21.9501 18.1292C21.1562 18.3667 20.6005 18.7229 19.7273 19.3167C18.8937 19.8708 18.2586 20.3062 17.8617 20.5833C17.822 20.5042 17.7823 20.3854 17.7426 20.2667C18.4571 19.1583 19.37 18.2083 20.4021 17.4958C21.2356 16.9021 22.0294 16.5458 22.347 16.4271C22.5455 16.3479 22.7439 16.2688 22.9424 16.1896C23.0218 16.15 23.1408 16.15 23.2996 16.1104C23.8156 16.0708 24.1729 16.0313 24.4904 16.1896ZM24.2919 13.6167C24.6095 13.775 24.8079 13.9729 24.8476 14.1708C24.8873 14.4083 24.7286 14.6062 24.6889 14.6854C24.5698 14.8438 24.411 14.9229 23.9347 15.1604C23.6172 15.3188 23.2202 15.4771 22.7836 15.675C22.5455 15.7542 22.347 15.8333 22.1088 15.9125C21.7119 16.0708 20.9181 16.4271 20.0448 17.0208C19.0525 17.6938 18.1793 18.6042 17.4251 19.6729C17.3854 19.5938 17.306 19.5146 17.2663 19.3958C19.1319 15.5958 21.831 14.0521 22.863 13.6167L23.0218 13.5771C23.1805 13.5375 23.379 13.5375 23.6172 13.5375C23.8553 13.5375 24.0935 13.5375 24.2919 13.6167ZM23.6172 10.6875C23.6569 10.7667 23.8553 10.9646 23.895 11.3208C23.9347 11.7563 23.3393 12.5479 22.9027 12.9833C21.9898 13.3396 19.0525 14.8042 16.9488 18.8417C16.9091 18.8021 16.8694 18.7625 16.8297 18.7229C17.1472 17.2188 17.5839 15.7542 18.219 14.3687C18.9731 12.7063 19.5685 11.9938 20.0051 11.5583C20.4814 11.0833 21.0371 10.6875 21.6325 10.3313C22.4264 10.0938 23.2202 10.2125 23.6172 10.6875ZM21.7913 7.52083C21.9898 7.67917 22.1088 7.91667 22.1485 8.23333C22.2676 9.14375 21.2753 9.85625 21.2753 9.85625L21.1165 9.975C20.799 10.1729 20.5211 10.3708 20.2433 10.5688L19.6479 11.0042L19.8464 10.925C19.767 11.0042 19.6876 11.0833 19.6082 11.1625C19.1319 11.6375 18.4968 12.3896 17.7029 14.1313C17.306 15.0021 16.9885 15.9125 16.7106 16.8229C17.6633 10.2521 19.1716 8.27292 19.9257 7.67917L20.1639 7.56042C20.7196 7.20417 21.3944 7.20417 21.7913 7.52083ZM19.1319 3.40417C19.3303 3.28542 19.5685 3.20625 19.767 3.16667C19.8067 3.28542 19.8464 3.40417 19.9257 3.52292C20.0845 3.83958 20.1639 3.99792 20.2433 4.15625C20.283 4.23542 20.3227 4.31458 20.3624 4.35417C20.6799 5.02708 20.4417 5.81875 20.3227 6.05625C20.2036 6.4125 20.0448 6.72917 19.8067 7.00625C18.9731 7.44167 17.3854 9.10417 16.274 15.3583C16.274 14.8833 16.3137 14.4083 16.3137 13.9333C16.4328 11.4396 16.5122 10.0938 16.8694 8.35208C17.1076 7.125 17.4648 5.89792 17.8617 4.71042L17.9411 4.59167C18.1793 4.19583 18.5365 3.72083 19.1319 3.40417ZM13.7337 2.77083C13.9321 2.45417 14.1306 2.1375 14.3688 1.86042C14.7657 1.38542 15.2023 1.02917 15.5198 0.752083C15.8374 1.02917 16.274 1.38542 16.6709 1.86042C16.9091 2.1375 17.1076 2.45417 17.306 2.77083C17.3854 2.92917 17.4251 3.0875 17.4251 3.24583V4.23542C16.9488 5.50208 16.5915 6.84792 16.3137 8.15417C15.9565 9.93542 15.8771 11.4 15.758 13.8146C15.6786 15.0813 15.6786 16.3479 15.6389 17.6146C15.5992 17.6146 15.5595 17.575 15.5198 17.575C15.5198 17.575 15.5198 17.575 15.4802 17.575C15.4802 17.575 15.4802 17.575 15.4405 17.575C15.4008 17.575 15.3611 17.575 15.3214 17.6146C15.3214 16.3479 15.2817 15.0813 15.2023 13.8146C15.0832 11.4 15.0038 9.93542 14.6466 8.15417C14.3688 6.80833 14.0115 5.50208 13.5352 4.23542V3.28542C13.6146 3.0875 13.6543 2.92917 13.7337 2.77083ZM10.6376 4.35417C10.6773 4.275 10.717 4.23542 10.7567 4.15625C10.8361 4.0375 10.9155 3.83958 11.0743 3.52292C11.1536 3.40417 11.1933 3.24583 11.233 3.16667C11.4712 3.20625 11.6697 3.325 11.8681 3.40417C12.5032 3.72083 12.8604 4.19583 13.0192 4.55208L13.0986 4.67083C13.5352 5.85833 13.8528 7.08542 14.0909 8.3125C14.4481 10.0542 14.4878 11.4396 14.6466 13.8938C14.6863 14.3687 14.6863 14.8438 14.6863 15.3188C13.6146 9.06458 11.9872 7.40208 11.1536 6.96667C10.9155 6.68958 10.7567 6.37292 10.6376 6.01667C10.598 5.81875 10.3201 5.02708 10.6376 4.35417ZM8.85147 8.23333C8.89116 7.91667 9.01024 7.67917 9.20871 7.52083C9.60563 7.20417 10.2804 7.20417 10.8758 7.52083L11.114 7.63958C11.8681 8.23333 13.3764 10.2125 14.3291 16.7833C14.0512 15.8729 13.7337 14.9625 13.3367 14.0917C12.5429 12.35 11.9078 11.5979 11.4315 11.1229C11.3521 11.0438 11.2727 10.9646 11.1933 10.8854L11.3918 10.9646L10.7964 10.5292C10.5186 10.2917 10.2407 10.0938 9.92318 9.93542L9.76441 9.81667C9.72471 9.85625 8.73239 9.14375 8.85147 8.23333ZM7.14469 11.3208C7.18438 11.0042 7.34315 10.7667 7.42254 10.6875C7.81946 10.2125 8.61332 10.0938 9.44686 10.3313C10.0423 10.6875 10.598 11.0833 11.0743 11.5583C11.5109 11.9938 12.1063 12.7063 12.8604 14.3687C13.4955 15.7542 13.9321 17.2188 14.2497 18.7229C14.21 18.7625 14.1703 18.8021 14.1306 18.8417C12.0269 14.7646 9.04994 13.3396 8.1767 12.9833C7.70038 12.5083 7.10499 11.7563 7.14469 11.3208ZM6.31114 14.6854C6.27145 14.6062 6.11268 14.4083 6.15237 14.1708C6.19206 13.9333 6.39052 13.7354 6.70807 13.6167C6.94622 13.4979 7.14469 13.4979 7.38284 13.4979C7.621 13.4979 7.81946 13.4979 7.97823 13.5375L8.137 13.5771C9.16901 14.0521 11.8681 15.5563 13.7337 19.3563C13.694 19.4354 13.6146 19.5146 13.5749 19.6333C12.8207 18.6042 11.9078 17.7333 10.9552 17.0208C10.1216 16.4271 9.28809 16.0708 8.89117 15.9125C8.65301 15.8333 8.45455 15.7542 8.21639 15.675C7.77977 15.4771 7.38284 15.3188 7.0653 15.1604C6.5493 14.9229 6.43022 14.8438 6.31114 14.6854ZM6.15237 17.2979C6.07298 17.1792 5.91421 16.9813 5.95391 16.7833C5.9936 16.4271 6.46991 16.1896 6.5096 16.1896C6.82714 16.0313 7.22407 16.0708 7.70038 16.15C7.85916 16.1896 7.97823 16.1896 8.05762 16.2292C8.25608 16.3083 8.45455 16.3875 8.65301 16.4667C8.97055 16.5854 9.76441 16.9417 10.598 17.5354C11.63 18.2479 12.5429 19.1979 13.2574 20.3062C13.2177 20.425 13.178 20.5042 13.1383 20.6229C12.7414 20.3458 12.1063 19.9104 11.2727 19.3563C10.3995 18.7625 9.84379 18.4063 9.04994 18.1688C8.65301 18.05 8.21639 18.0104 7.77977 17.9708C7.66069 17.9313 6.62868 17.9313 6.15237 17.2979ZM6.15237 19.2771C6.23175 19.0396 6.43022 18.9208 6.62868 18.8021C6.94622 18.6042 7.30346 18.5646 7.621 18.525C7.70038 18.525 7.74008 18.525 7.81946 18.525C8.1767 18.525 8.57362 18.6042 8.93086 18.6833C9.60563 18.8813 10.0423 19.1583 10.9552 19.7917C11.9078 20.4646 12.6223 20.9396 12.9795 21.1771C12.9795 21.2167 12.9795 21.2563 12.9398 21.2958C12.3841 20.8604 11.7093 20.5042 10.8758 20.2271C10.4392 20.0688 10.0026 19.9896 9.60563 19.95L9.68502 19.9104H9.44686C8.65301 19.8313 7.93854 19.8708 7.38284 19.9896H7.14469C7.0653 19.9896 7.02561 19.9896 6.94622 19.9896C6.62868 19.9896 6.35083 19.9896 6.23175 19.8708C6.07298 19.7521 6.07298 19.475 6.15237 19.2771ZM1.42894 33.1312C1.90525 32.6958 2.1831 32.3792 2.42125 32.1021C2.61972 31.8646 2.77849 31.7063 2.97695 31.5083C3.49296 31.0729 4.24712 30.8354 5.19974 30.7958H5.47759C6.27145 30.9542 6.98592 30.9938 7.621 30.9938C11.0743 30.9938 12.3047 29.1333 12.3841 29.0146C12.8604 28.3813 13.1383 27.6292 13.1383 26.7979C13.1383 24.6208 11.114 23.0771 9.2484 23.0375C8.1767 23.0375 7.30346 23.5125 6.82715 23.8687C6.78745 23.9083 6.74776 23.9479 6.70807 23.9875C6.62868 24.0271 6.58899 24.1063 6.5493 24.1458C6.5493 24.1458 6.5493 24.1458 6.5096 24.1854L6.46991 24.225C6.39052 24.3042 6.35083 24.3438 6.27145 24.4229C6.23175 24.4625 6.23175 24.4625 6.19206 24.5021L6.15237 24.5417C6.11268 24.6208 6.03329 24.7 5.9936 24.7792C5.9936 24.7792 5.9936 24.8188 5.95391 24.8188C5.91421 24.9375 5.87452 25.0167 5.83483 25.1354C5.83483 25.1354 5.83483 25.1354 5.83483 25.175C5.83483 25.2146 5.79513 25.2938 5.79513 25.3333V25.3729C5.75544 25.5708 5.71575 25.7292 5.71575 25.9271C5.71575 27.3125 6.90653 28.4604 8.37516 28.4604C9.01024 28.4604 9.56594 28.2625 10.0026 27.9062C10.3201 27.7083 10.5583 27.3521 10.5583 26.9167C10.5583 26.2833 10.0026 25.7292 9.32779 25.7292C8.65301 25.7292 8.09731 26.2438 8.09731 26.9167C8.09731 27.3917 8.41485 27.8271 8.85147 28.025C8.6927 28.0646 8.49424 28.1042 8.33547 28.1042C7.10499 28.1042 6.07298 27.1146 6.07298 25.9271C6.07298 25.6896 6.11268 25.4521 6.15237 25.3729C6.27145 24.9771 6.46991 24.6604 6.62868 24.4625C7.54161 23.4333 9.04994 23.4333 9.16901 23.4333C10.6376 23.4333 11.8284 24.3833 12.3444 25.4521C12.4238 25.65 12.662 26.1646 12.662 26.8375C12.662 27.7875 12.265 28.6583 11.5109 29.3312C10.7567 30.0042 8.93086 31.0729 5.47759 30.4396L5.31882 30.3208C5.04097 30.1229 2.77849 28.2625 2.97695 25.4917C3.09603 23.9875 3.85019 22.8792 4.16773 22.4833C5.00128 21.4542 6.03329 20.9792 6.74776 20.7417H6.78745C7.66069 20.5042 9.04994 20.3458 10.598 20.8208C11.5506 21.1375 12.265 21.5729 12.8604 22.0875C12.8604 22.0875 12.8604 22.0875 12.9001 22.1271C13.8528 22.9583 14.3291 23.8688 14.4878 24.225C15.7977 27.075 14.3688 29.7667 13.8528 30.5187C12.7414 32.3 11.0743 33.1708 10.1216 33.5667H1.03201C1.15109 33.3688 1.30986 33.25 1.42894 33.1312ZM30.2061 37.3667H15.7977H15.242H0.793854C0.674776 37.3667 0.595391 37.2875 0.595391 37.1688V34.0812H15.242H15.7977H30.4443V37.1688C30.4046 37.2875 30.3252 37.3667 30.2061 37.3667Z" fill="#FFDF9A" fill-opacity="0.5"/>
</svg>
